<?xml version="1.0" encoding="utf-8"?>
<!-- Generator: Adobe Illustrator 27.0.1, SVG Export Plug-In . SVG Version: 6.00 Build 0)  -->
<svg version="1.1" id="Layer_1" xmlns="http://www.w3.org/2000/svg" xmlns:xlink="http://www.w3.org/1999/xlink" x="0px" y="0px"
	 viewBox="0 0 650.05 650.05" style="enable-background:new 0 0 650.05 650.05;" xml:space="preserve">
<style type="text/css">
	.st0{fill:#011F7B;}
	.st1{fill:#DAA520;}
	.st2{fill:none;}
</style>
<g>
	<g>
		<g>
			<path class="st0" d="M513.86,329.42l-188.17,92.93l-187.5-92.94c-3.57-48.98,14.91-92.55,58.17-117.01
				c55.07-31.14,162.49-34.06,222.44-17.09C481.2,212.98,519.34,263.55,513.86,329.42z M201.53,279.58h49
				c5.32,0-3.48-19.76-5.5-22.5c-10.32-13.99-33.49-17.44-43.83-1.83C197.83,260.32,194.11,278.36,201.53,279.58z M401.03,279.58
				h50.5c1.78,0,3.32-5.77,3.49-7.5c1.03-10.02-3.52-19.76-12.68-24.32C420.84,237.05,398.75,257.49,401.03,279.58z"/>
			<path class="st0" d="M457.65,45.19c13.78-12.38,25.95-32.07,47.58-26.32c28.67,7.62,29.8,48.85,1.57,57.98
				c-10.48,3.39-21.62-1.23-29.76,6.22c27.4,30.29,40.93,73.26,34.15,113.91c27.14,16.55,49.88,43.36,58.54,74.37
				c1.46,5.22,6.31,26.33,3.3,29.73l-37.01,17.48c2.22-57.79-32.57-111.72-85.56-133.98c-0.03-7.08,2.06-13.21,1.59-20.55
				c-2.04-31.43-34.64-51.14-62.7-34.63c-12.38,7.28-18.97,22.22-20.34,36.16l-83.41,0.07c-3.58-28.68-30.24-51.8-59.27-39.25
				c-21.38,9.24-29.15,35.81-23.83,57.26c-6.6,5.07-14.41,8.07-21.39,12.52c-41.78,26.59-66.32,73.59-64.09,123.42l-37.83-18.16
				c-0.76-32.72,16.88-67.65,41.31-88.87c6.86-5.95,14.9-10.28,21.98-15.92c-5.45-33.74,3.22-71.4,22.74-99.37
				c1.81-2.6,11.6-13.31,11.8-14.21c0.48-2.13-3.33-2.91-4.75-3.22c-14.12-3.12-24.35,1.37-37.57-8.43
				c-31.62-23.45,6.1-72.13,38.34-46.34l34.48,32.34c50.97-31.55,117.31-39.5,175.52-26.34c21.39,4.84,41.84,13.32,60.71,24.36
				C447,55.95,454.8,47.76,457.65,45.19z"/>
			<path class="st0" d="M256.67,150.93c4.36,4.36,6.75,11.47,6.35,17.64l-39.51,7.03c-3.15-9.05,0.15-20.47,7.61-26.44
				C238.57,143.2,249.95,144.21,256.67,150.93z"/>
			<path class="st0" d="M405.76,145.81c18.12-3.36,29.81,14.18,23.32,30.36l-37.62-8.52C389.65,159.15,397.11,147.41,405.76,145.81z
				"/>
		</g>
	</g>
	<g>
		<polygon class="st1" points="46.03,311.83 304.04,434.84 234.71,506.17 46.03,413.33 		"/>
		<polygon class="st1" points="315.03,455.33 315.03,632.33 102.03,532.33 102.03,466.33 238.56,530.31 		"/>
		<g>
			<polygon class="st1" points="604.03,311.83 346.02,434.84 415.34,506.17 604.03,413.33 			"/>
			<polygon class="st1" points="335.03,455.33 335.03,632.33 548.03,532.33 548.03,466.33 411.5,530.31 			"/>
		</g>
	</g>
</g>
<rect class="st2" width="650.05" height="650.05"/>
</svg>
