<?xml version="1.0" encoding="utf-8"?>
<!-- Generator: Adobe Illustrator 27.0.1, SVG Export Plug-In . SVG Version: 6.00 Build 0)  -->
<svg version="1.1" id="Layer_1" xmlns="http://www.w3.org/2000/svg" xmlns:xlink="http://www.w3.org/1999/xlink" x="0px" y="0px"
	 viewBox="0 0 2879.74 1082.75" style="enable-background:new 0 0 2879.74 1082.75;" xml:space="preserve" width="2879.74" height="1082.75">
<style type="text/css">
	.st0{fill:#011F7B;}
	.st1{fill:#DAA520;}
</style>
<g>
	<g>
		<g>
			<g>
				<g>
					<path class="st0" d="M632.26,545.64l-188.17,92.93l-187.5-92.94c-3.57-48.98,14.91-92.55,58.17-117.01
						c55.07-31.14,162.49-34.06,222.44-17.09C599.59,429.2,637.73,479.77,632.26,545.64z M319.92,495.8h49
						c5.32,0-3.48-19.76-5.5-22.5c-10.32-13.99-33.49-17.44-43.83-1.83C316.22,476.55,312.5,494.58,319.92,495.8z M519.42,495.8
						h50.5c1.78,0,3.32-5.77,3.49-7.5c1.03-10.02-3.52-19.76-12.68-24.32C539.24,453.27,517.14,473.71,519.42,495.8z"/>
					<path class="st0" d="M576.04,261.41c13.78-12.38,25.95-32.07,47.58-26.32c28.67,7.62,29.8,48.85,1.57,57.98
						c-10.48,3.39-21.62-1.23-29.76,6.22c27.4,30.29,40.93,73.26,34.15,113.91c27.14,16.55,49.88,43.36,58.54,74.37
						c1.46,5.22,6.31,26.33,3.3,29.73l-37.01,17.48c2.22-57.79-32.57-111.72-85.56-133.98c-0.03-7.08,2.06-13.21,1.59-20.55
						c-2.04-31.43-34.64-51.14-62.7-34.63c-12.38,7.28-18.97,22.22-20.34,36.16L404,381.86c-3.58-28.68-30.24-51.8-59.27-39.25
						c-21.38,9.24-29.15,35.81-23.83,57.26c-6.6,5.07-14.41,8.07-21.39,12.52c-41.78,26.59-66.32,73.59-64.09,123.42l-37.83-18.16
						c-0.76-32.72,16.88-67.65,41.31-88.87c6.86-5.95,14.9-10.28,21.98-15.92c-5.45-33.74,3.22-71.4,22.74-99.37
						c1.81-2.6,11.6-13.31,11.8-14.21c0.48-2.13-3.33-2.91-4.75-3.22c-14.12-3.12-24.35,1.37-37.57-8.43
						c-31.62-23.45,6.1-72.13,38.34-46.34l34.48,32.34c50.97-31.55,117.31-39.5,175.52-26.34c21.39,4.84,41.84,13.32,60.71,24.36
						C565.39,272.18,573.19,263.98,576.04,261.41z"/>
					<path class="st0" d="M375.06,367.16c4.36,4.36,6.75,11.47,6.35,17.64l-39.51,7.03c-3.15-9.05,0.15-20.47,7.61-26.44
						C356.96,359.42,368.34,360.43,375.06,367.16z"/>
					<path class="st0" d="M524.15,362.03c18.12-3.36,29.81,14.18,23.32,30.36l-37.62-8.52
						C508.04,375.37,515.51,363.63,524.15,362.03z"/>
				</g>
			</g>
			<g>
				<polygon class="st1" points="164.42,528.05 422.43,651.06 353.1,722.39 164.42,629.55 				"/>
				<polygon class="st1" points="433.42,671.55 433.42,848.55 220.42,748.55 220.42,682.55 356.95,746.53 				"/>
				<g>
					<polygon class="st1" points="722.42,528.05 464.41,651.06 533.73,722.39 722.42,629.55 					"/>
					<polygon class="st1" points="453.42,671.55 453.42,848.55 666.42,748.55 666.42,682.55 529.89,746.53 					"/>
				</g>
			</g>
		</g>
		<g>
			<g>
				<path class="st1" d="M883.22,240.79c-10.81-4.82-23.86-7.23-39.16-7.23h-68.09v174.58h24.94v-52.87h43.15
					c15.3,0,28.35-2.45,39.16-7.36c10.81-4.9,19.12-11.89,24.94-20.95c5.82-9.06,8.73-19.91,8.73-32.55
					c0-12.63-2.91-23.53-8.73-32.67C902.33,252.6,894.02,245.61,883.22,240.79z M879.6,323.34c-8.23,6.82-20.33,10.23-36.29,10.23
					h-42.4v-78.31h42.4c15.96,0,28.06,3.41,36.29,10.23c8.23,6.82,12.34,16.46,12.34,28.93S887.83,316.52,879.6,323.34z"/>
				<path class="st1" d="M1052.31,233.55l-79.06,174.58h25.69l19.18-43.65h92.83l19.18,43.65h26.19L1077,233.55H1052.31z
					 M1026.88,344.54l37.65-85.67l37.65,85.67H1026.88z"/>
				<path class="st1" d="M1264.8,272.71c6.15-5.99,13.43-10.64,21.82-13.97c8.39-3.32,17.5-4.99,27.31-4.99
					c9.48,0,18.37,1.71,26.69,5.11c8.31,3.41,15.79,8.6,22.45,15.59l16.21-15.71c-7.98-8.98-17.67-15.75-29.06-20.33
					c-11.39-4.57-23.82-6.86-37.29-6.86c-13.3,0-25.56,2.21-36.79,6.61c-11.22,4.41-20.99,10.64-29.3,18.71
					c-8.32,8.07-14.8,17.5-19.45,28.31c-4.66,10.81-6.98,22.7-6.98,35.66c0,12.97,2.33,24.86,6.98,35.66
					c4.65,10.81,11.1,20.24,19.33,28.31c8.23,8.07,17.96,14.3,29.18,18.71c11.22,4.41,23.48,6.61,36.79,6.61
					c13.63,0,26.14-2.33,37.53-6.98c11.39-4.65,21.07-11.47,29.06-20.45l-16.21-15.71c-6.65,7.15-14.13,12.43-22.45,15.84
					c-8.32,3.41-17.21,5.11-26.69,5.11c-9.81,0-18.92-1.66-27.31-4.99c-8.4-3.32-15.67-7.98-21.82-13.97
					c-6.15-5.99-10.93-13.09-14.34-21.32c-3.41-8.23-5.11-17.17-5.11-26.81c0-9.64,1.7-18.58,5.11-26.81
					C1253.86,285.8,1258.65,278.7,1264.8,272.71z"/>
				<polygon class="st1" points="1617.95,233.55 1589.52,233.55 1494.75,331.19 1494.75,233.55 1469.81,233.55 1469.81,408.14 
					1494.75,408.14 1494.75,362.95 1526.78,330.48 1593.51,408.14 1622.69,408.14 1543.44,312.19 				"/>
				<path class="st1" d="M1749.64,233.55l-79.06,174.58h25.69l19.18-43.65h92.83l19.18,43.65h26.19l-79.31-174.58H1749.64z
					 M1724.21,344.54l37.65-85.67l37.65,85.67H1724.21z"/>
				<path class="st1" d="M1962.25,272.71c6.24-5.99,13.63-10.64,22.2-13.97c8.56-3.32,17.83-4.99,27.81-4.99
					c9.81,0,18.91,1.62,27.31,4.86c8.39,3.24,16.17,8.36,23.32,15.34l15.46-15.46c-7.98-8.98-17.71-15.71-29.18-20.2
					c-11.47-4.49-24.11-6.73-37.91-6.73c-13.63,0-26.1,2.21-37.41,6.61c-11.31,4.41-21.16,10.64-29.55,18.71
					c-8.4,8.07-14.92,17.5-19.58,28.31c-4.66,10.81-6.98,22.7-6.98,35.66c0,12.97,2.33,24.86,6.98,35.66
					c4.65,10.81,11.14,20.24,19.45,28.31c8.31,8.07,18.12,14.3,29.43,18.71c11.3,4.41,23.69,6.61,37.16,6.61
					c12.3,0,24.23-1.87,35.79-5.61c11.55-3.74,21.66-9.27,30.3-16.59v-68.09h-23.94v56.78c-4.5,2.95-9.19,5.28-14.09,6.94
					c-8.57,2.91-17.5,4.36-26.81,4.36c-9.98,0-19.2-1.66-27.68-4.99c-8.48-3.32-15.84-8.02-22.07-14.09
					c-6.23-6.07-11.06-13.22-14.47-21.45c-3.41-8.23-5.11-17.08-5.11-26.56c0-9.64,1.7-18.58,5.11-26.81
					C1951.19,285.8,1956.02,278.7,1962.25,272.71z"/>
				<rect x="2179.36" y="233.55" class="st1" width="24.94" height="174.58"/>
				<polygon class="st1" points="2436.74,363.64 2331.99,233.55 2311.54,233.55 2311.54,408.14 2336.48,408.14 2336.48,278.05 
					2441.23,408.14 2461.68,408.14 2461.68,233.55 2436.74,233.55 				"/>
				<path class="st1" d="M2689.88,376.63c-4.5,2.95-9.19,5.28-14.09,6.94c-8.57,2.91-17.5,4.36-26.81,4.36
					c-9.98,0-19.2-1.66-27.68-4.99c-8.48-3.32-15.84-8.02-22.07-14.09c-6.23-6.07-11.06-13.22-14.47-21.45
					c-3.41-8.23-5.11-17.08-5.11-26.56c0-9.64,1.7-18.58,5.11-26.81c3.41-8.23,8.23-15.34,14.47-21.32
					c6.24-5.99,13.63-10.64,22.2-13.97c8.56-3.32,17.83-4.99,27.81-4.99c9.81,0,18.91,1.62,27.31,4.86
					c8.39,3.24,16.17,8.36,23.32,15.34l15.46-15.46c-7.98-8.98-17.71-15.71-29.18-20.2c-11.47-4.49-24.11-6.73-37.91-6.73
					c-13.64,0-26.1,2.21-37.41,6.61c-11.31,4.41-21.16,10.64-29.55,18.71c-8.4,8.07-14.93,17.5-19.58,28.31
					c-4.66,10.81-6.98,22.7-6.98,35.66c0,12.97,2.33,24.86,6.98,35.66c4.65,10.81,11.14,20.24,19.45,28.31
					c8.31,8.07,18.12,14.3,29.43,18.71c11.3,4.41,23.69,6.61,37.16,6.61c12.3,0,24.23-1.87,35.79-5.61
					c11.55-3.74,21.66-9.27,30.3-16.59v-68.09h-23.94V376.63z"/>
			</g>
			<g>
				<polygon class="st0" points="1013.03,623.01 876.43,623.01 876.43,489.95 776.25,489.95 776.25,844.11 876.43,844.11 
					876.43,705.99 1013.03,705.99 1013.03,844.11 1113.21,844.11 1113.21,489.95 1013.03,489.95 				"/>
				<rect x="1244.75" y="489.95" class="st0" width="100.18" height="354.16"/>
				<path class="st0" d="M1722.61,505.63c-23.45-10.45-51.35-15.68-83.73-15.68h-161.9v354.16h100.18v-92.59h61.72
					c32.38,0,60.29-5.31,83.73-15.94c23.44-10.62,41.57-25.72,54.39-45.28c12.81-19.56,19.23-42.67,19.23-69.31
					c0-26.98-6.41-50.34-19.23-70.07C1764.18,531.18,1746.05,516.09,1722.61,505.63z M1679.6,658.94
					c-10.29,9.11-25.89,13.66-46.8,13.66h-55.65V568.88h55.65c20.91,0,36.51,4.55,46.8,13.66c10.29,9.11,15.43,21.93,15.43,38.45
					C1695.04,637.18,1689.89,649.83,1679.6,658.94z"/>
				<path class="st0" d="M2151.15,505.63c-23.45-10.45-51.35-15.68-83.73-15.68h-161.9v354.16h100.18v-92.59h61.72
					c32.38,0,60.29-5.31,83.73-15.94c23.44-10.62,41.57-25.72,54.39-45.28c12.81-19.56,19.23-42.67,19.23-69.31
					c0-26.98-6.41-50.34-19.23-70.07C2192.71,531.18,2174.59,516.09,2151.15,505.63z M2108.14,658.94
					c-10.29,9.11-25.89,13.66-46.8,13.66h-55.65V568.88h55.65c20.91,0,36.51,4.55,46.8,13.66c10.29,9.11,15.43,21.93,15.43,38.45
					C2123.57,637.18,2118.43,649.83,2108.14,658.94z"/>
				<path class="st0" d="M2699.59,593.67c-9.95-22.26-23.7-41.74-41.23-58.44c-17.54-16.7-38.2-29.6-61.98-38.7
					s-50.01-13.66-78.67-13.66c-28.33,0-54.48,4.55-78.42,13.66c-23.95,9.11-44.78,22.01-62.48,38.7s-31.46,36.18-41.23,58.44
					c-9.79,22.26-14.67,46.72-14.67,73.36c0,26.65,4.89,51.1,14.67,73.36c9.78,22.26,23.53,41.74,41.23,58.44
					s38.53,29.6,62.48,38.71c23.95,9.11,50.09,13.66,78.42,13.66c28.67,0,54.9-4.55,78.67-13.66c23.78-9.11,44.44-21.92,61.98-38.45
					c17.53-16.52,31.28-36,41.23-58.44c9.95-22.43,14.93-46.96,14.93-73.61C2714.51,640.39,2709.53,615.93,2699.59,593.67z
					 M2605.99,708.52c-4.89,12.48-11.64,23.19-20.24,32.13c-8.6,8.94-18.72,15.77-30.36,20.49c-11.64,4.73-24.21,7.08-37.69,7.08
					c-13.49,0-26.06-2.36-37.69-7.08c-11.64-4.72-21.76-11.55-30.36-20.49c-8.6-8.93-15.35-19.64-20.24-32.13
					c-4.89-12.47-7.34-26.31-7.34-41.49c0-15.51,2.44-29.42,7.34-41.74c4.89-12.31,11.64-22.93,20.24-31.88
					c8.6-8.93,18.72-15.76,30.36-20.49c11.64-4.72,24.2-7.08,37.69-7.08c13.49,0,26.06,2.36,37.69,7.08
					c11.64,4.73,21.75,11.56,30.36,20.49c8.6,8.94,15.34,19.57,20.24,31.88c4.89,12.32,7.34,26.23,7.34,41.74
					C2613.32,682.21,2610.87,696.04,2605.99,708.52z"/>
			</g>
		</g>
	</g>
</g>
</svg>
