<svg xmlns="http://www.w3.org/2000/svg" viewBox="0 0 120 120" role="img" aria-label="Packaging Hippo mark">
  <polygon points="60,8 98,30 98,78 60,100 22,78 22,30" fill="none" stroke="#123B9F" stroke-width="10" stroke-linejoin="round"/>
  <path fill="#123B9F" d="M37 52L58 34L85 45L67 58L57 51L45 60Z"/>
  <path fill="#123B9F" d="M42 66L56 58L56 83L42 75Z"/>
  <path fill="#123B9F" d="M60 66L78 50L91 57L82 65L90 72L75 85L67 78L74 71L60 75Z"/>
  <polygon fill="#FFFFFF" points="43,57 56,49 67,56 54,64"/>
  <polygon fill="#FFFFFF" points="43,66 54,60 54,80 43,74"/>
  <polygon fill="#FFFFFF" points="65,67 77,56 81,59 74,65 81,69 69,79 65,76 71,70 65,71"/>
</svg>
