<svg xmlns="http://www.w3.org/2000/svg" width="32" height="32" viewBox="0 0 32 32">
  <rect width="32" height="32" rx="6" fill="#0a2463"/>
  <g transform="translate(6, 6)" stroke="white" stroke-width="1.8" fill="none" stroke-linecap="round" stroke-linejoin="round">
    <path d="M16.5 9.4l-7-4.25"/>
    <path d="M21 16v-5.6a2 2 0 00-1-1.73l-7-4a2 2 0 00-2 0l-7 4a2 2 0 00-1 1.73V16a2 2 0 001 1.73l7 4a2 2 0 002 0l7-4a2 2 0 001-1.73z"/>
    <polyline points="3.5 7.21 12 12.01 20.5 7.21"/>
    <line x1="12" y1="22" x2="12" y2="12"/>
  </g>
</svg>
